<svg width="36" height="37" viewBox="0 0 36 37" fill="none" xmlns="http://www.w3.org/2000/svg">
<g clip-path="url(#clip0)">
<path d="M33.3563 0.5H2.64375C1.18125 0.5 0 1.68125 0 3.0875V33.9125C0 35.3188 1.18125 36.5 2.64375 36.5H33.3C34.7625 36.5 35.9438 35.3188 35.9438 33.9125V3.0875C36 1.68125 34.8187 0.5 33.3563 0.5ZM10.6875 31.1562H5.34375V14H10.6875V31.1562ZM7.9875 11.6375C6.3 11.6375 4.89375 10.2312 4.89375 8.54375C4.89375 6.85625 6.3 5.45 7.9875 5.45C9.675 5.45 11.0813 6.85625 11.0813 8.54375C11.0813 10.2875 9.73125 11.6375 7.9875 11.6375ZM30.6562 31.1562H25.3125V22.8313C25.3125 20.8625 25.2562 18.275 22.5562 18.275C19.8 18.275 19.35 20.4688 19.35 22.6625V31.1562H14.0062V14H19.125V16.3625H19.1812C19.9125 15.0125 21.6562 13.6062 24.2437 13.6062C29.6437 13.6062 30.6562 17.15 30.6562 21.8188V31.1562Z" fill="#E5E5E5"/>
</g>
<defs>
<clipPath id="clip0">
<rect width="36" height="36" fill="white" transform="translate(0 0.5)"/>
</clipPath>
</defs>
</svg>
