<svg width="36" height="41" viewBox="0 0 36 41" fill="none" xmlns="http://www.w3.org/2000/svg">
<path d="M32.1429 2.56253H3.85714C1.72768 2.56253 0 4.28421 0 6.40628V34.5938C0 36.7159 1.72768 38.4375 3.85714 38.4375H32.1429C34.2723 38.4375 36 36.7159 36 34.5938V6.40628C36 4.28421 34.2723 2.56253 32.1429 2.56253ZM30.8411 14.5422C30.7286 17.0327 28.9768 20.452 25.5938 24.7842C22.0982 29.3086 19.1411 31.5748 16.7223 31.5748C15.2196 31.5748 13.958 30.1975 12.9214 27.4428C10.8964 20.0516 10.0366 15.7194 8.36518 15.7194C8.17232 15.7194 7.49732 16.1198 6.34821 16.9285L5.14286 15.375C8.10804 12.7805 10.9366 9.89769 12.7045 9.73753C14.7054 9.54534 15.9348 10.9067 16.4009 13.8295C18.0482 24.2077 18.7795 25.7772 21.7687 21.0766C22.8455 19.3789 23.4241 18.0977 23.4964 17.2088C23.7696 14.5823 21.4393 14.7584 19.8643 15.4311C21.1259 11.3071 23.5446 9.30511 27.1045 9.41722C29.7482 9.4973 30.9937 11.211 30.8411 14.5422Z" fill="#E5E5E5"/>
</svg>
